<?xml version="1.0" encoding="UTF-8" standalone="no"?>
<!-- Created with Inkscape (http://www.inkscape.org/) -->

<svg
   width="1935.12"
   height="1935.12"
   viewBox="0 0 512.0005 512.0005"
   version="1.1"
   id="svg1"
   xml:space="preserve"
   inkscape:version="1.4 (86a8ad7, 2024-10-11)"
   sodipodi:docname="Slug-enemy.svg"
   xmlns:inkscape="http://www.inkscape.org/namespaces/inkscape"
   xmlns:sodipodi="http://sodipodi.sourceforge.net/DTD/sodipodi-0.dtd"
   xmlns:xlink="http://www.w3.org/1999/xlink"
   xmlns="http://www.w3.org/2000/svg"
   xmlns:svg="http://www.w3.org/2000/svg"><sodipodi:namedview
     id="namedview1"
     pagecolor="#ffffff"
     bordercolor="#000000"
     borderopacity="0.25"
     inkscape:showpageshadow="2"
     inkscape:pageopacity="0.0"
     inkscape:pagecheckerboard="0"
     inkscape:deskcolor="#d1d1d1"
     inkscape:document-units="mm"
     showgrid="true"
     inkscape:zoom="0.68862935"
     inkscape:cx="-46.46912"
     inkscape:cy="192.4112"
     inkscape:window-width="1920"
     inkscape:window-height="991"
     inkscape:window-x="-9"
     inkscape:window-y="-9"
     inkscape:window-maximized="1"
     inkscape:current-layer="g3"><inkscape:grid
       id="grid1"
       units="px"
       originx="0"
       originy="0"
       spacingx="42.597916"
       spacingy="42.597916"
       empcolor="#0099e5"
       empopacity="0.30196078"
       color="#0099e5"
       opacity="0.14901961"
       empspacing="5"
       enabled="true"
       visible="true" /><inkscape:grid
       type="modular"
       id="grid2"
       units="px"
       originx="0"
       originy="0"
       spacingx="42.597916"
       spacingy="42.597916"
       empcolor="#0047cb"
       empopacity="0.30196078"
       color="#0099e5"
       opacity="0.14901961"
       empspacing="0"
       marginx="0"
       marginy="0"
       gapx="0"
       gapy="0"
       enabled="true"
       visible="true" /></sodipodi:namedview><defs
     id="defs1"><linearGradient
       id="linearGradient1"
       inkscape:collect="always"><stop
         style="stop-color:#18d62f;stop-opacity:1;"
         offset="0.40744367"
         id="stop1" /><stop
         style="stop-color:#b5253f;stop-opacity:1;"
         offset="0.84035259"
         id="stop2" /></linearGradient><linearGradient
       inkscape:collect="always"
       xlink:href="#linearGradient1"
       id="linearGradient2"
       x1="29.565081"
       y1="36.845272"
       x2="13.032841"
       y2="5.7526531"
       gradientUnits="userSpaceOnUse" /></defs><g
     inkscape:label="Layer 1"
     inkscape:groupmode="layer"
     id="layer1"><rect
       style="fill:#868b8e;stroke:#000000;stroke-width:1.73894"
       id="rect2"
       width="40.858978"
       height="40.858982"
       x="-42.257614"
       y="0.86947" /><rect
       style="fill:#868b8e;stroke:#000000;stroke-width:1.73894"
       id="rect2-8"
       width="40.858978"
       height="40.858982"
       x="0.86947"
       y="513.39917" /><g
       id="g3"
       inkscape:label="slime"><g
         id="g2"
         inkscape:label="body"><path
           id="path3-2"
           style="fill:#376b30;fill-opacity:1;stroke:#1a451c;stroke-width:0.762;stroke-opacity:1"
           d="m 10.50348,21.262561 c -0.178974,-0.03978 -0.739987,1.68497 -1.136365,0.392741 -0.241888,-0.616767 -0.391907,-0.286541 -0.550871,0.06976 0.0917,0.240553 0.273358,0.505758 0.4408,0.673344 0.437501,0.900168 0.484558,2.018572 0.189136,2.973462 -0.434319,0.690427 -1.085407,2.243321 0.140043,2.452047 0.527769,0.655834 -0.67997,1.391034 -0.889351,2.023649 -0.322301,0.641337 -0.841588,2.094931 0.124023,2.372982 1.121874,-0.250758 0.769816,1.014467 0.525033,1.67845 -0.266226,0.733158 -0.552386,2.120121 0.526583,2.297018 0.801804,-0.364244 0.372381,0.685392 0.410311,1.135331 -0.205179,2.041101 2.938547,0.900562 4.627624,1.292945 1.689077,0.392383 2.014662,0.475537 3.115572,0.356567 l 0.377238,0.07906 c -0.738361,-0.70851 -0.974352,-1.767548 -1.258321,-1.532207 -1.19805,0.992896 -1.201776,-1.195513 -1.797306,-3.085599 -0.1741,-0.552526 -1.227682,1.640305 -1.456242,-0.499712 -0.0259,-0.677878 0.373409,-2.615956 -0.0031,-2.459281 -1.1099,0.462115 -1.012142,-2.899085 -0.454752,-4.503084 0.27379,-0.787876 -1.045003,0.550839 -1.229383,-0.849561 -0.17772,-1.349774 0.448243,-2.717633 0.279053,-4.126363 -0.51739,-1.606112 -1.941364,1.654959 -1.923914,-0.373104 0.0061,-0.255889 -0.01451,-0.359273 -0.05581,-0.368453 z"
           sodipodi:nodetypes="scccccccccczccssccssccss" /><path
           style="fill:url(#linearGradient2);fill-opacity:1;stroke:#1a451c;stroke-width:0.762;stroke-opacity:1"
           d="m 4.412824,3.2749716 c 1.944883,0.3507927 1.931722,3.0339439 2.610592,4.5187077 0.83009,1.7125878 1.47203,4.9127957 3.80898,4.8149677 1.8809,-0.919769 2.36778,-3.2537977 3.0501,-5.0572007 0.50869,-1.6165059 0.86953,-3.7236027 2.43199,-4.6331577 1.90527,1.2556161 -1.29235,3.4061864 -1.83844,4.8557427 -0.64235,1.9207028 -1.839,3.9451307 -1.26057,6.0358017 0.58529,2.394305 2.86185,1.164631 4.33101,0.531003 2.18384,0.851387 -0.54478,1.880739 -1.69306,1.621684 -1.16899,1.378112 0.55254,3.376889 0.9654,4.866229 1.17026,2.604608 1.37112,5.960466 3.96125,7.678809 2.7037,1.434036 5.85449,0.04294 8.72233,0.694872 2.0763,0.324185 4.00263,1.411942 5.61821,2.720051 1.72561,1.511553 2.59626,3.717318 3.04387,5.905727 0.95682,1.341981 -0.14175,2.137045 -1.51331,1.743606 -4.581878,0.120561 -6.940479,-0.0062 -8.300896,-1.061193 -0.362357,-0.281016 0.305265,1.112656 -0.630484,0.925765 -0.740489,-0.147893 -1.2862,-0.683226 -1.50784,-0.789515 -0.51812,-0.248473 0.14615,1.092225 -0.48167,1.099619 -1.17764,0.01387 -1.69221,-0.504057 -2.19672,-1.079919 -0.22251,-0.253983 -0.10289,0.61154 -0.30579,0.819194 -0.87585,0.896378 -2.28111,-0.775474 -2.71176,-1.120809 -0.64661,-0.518519 0.61446,1.240118 -1.15323,1.231654 -1.5824,-0.339288 -1.87195,-2.400604 -2.25669,-2.081749 -1.19805,0.992896 -1.20194,-1.195116 -1.79747,-3.085202 -0.1741,-0.552526 -1.22766,1.640354 -1.45622,-0.499663 -0.0259,-0.677878 0.37351,-2.615951 -0.003,-2.459276 -1.1099,0.462115 -1.01251,-2.899572 -0.45512,-4.503571 0.27379,-0.787876 -1.04474,0.55117 -1.22912,-0.84923 -0.17772,-1.349774 0.44825,-2.71771 0.27906,-4.12644 -0.51739,-1.606112 -1.94137,1.65482 -1.92392,-0.373243 0.0325,-1.364743 -0.70458,1.615036 -1.19243,0.0246 -0.52672,-1.343034 -0.61554,1.790665 -1.31734,-0.04829 -0.54567,-1.237385 -0.0667,0.950826 -0.894902,-0.01105 C 6.13059,19.951195 7.619706,17.740698 6.301304,16.143385 5.472996,15.680101 3.970969,13.433492 5.831027,13.837685 6.29736,14.936597 7.484646,16.59669 8.346546,14.756111 9.207946,12.646731 7.603096,10.684715 6.874159,8.8038343 6.134183,7.1110423 4.632536,5.7599843 4.074258,4.0317218 4.081658,3.7499232 4.186224,3.4552658 4.412644,3.2749766 Z"
           id="path2"
           sodipodi:nodetypes="sccccccccccccccssssssscsscsssccccccccccss" /></g><g
         id="g6"
         style="fill:#0a321b;fill-opacity:0.39052632"
         inkscape:label="spots"
         transform="translate(-92.949894,-3.0687344)"><ellipse
           style="fill:#0a321b;fill-opacity:0.39052632;stroke:none;stroke-width:0.89646;stroke-opacity:1"
           id="path4-2"
           cx="41.706497"
           cy="-98.899223"
           rx="1.370726"
           ry="1.048064"
           transform="matrix(0.22715505,0.97385861,-0.99086337,0.13486952,0,0)" /><ellipse
           style="fill:#0a321b;fill-opacity:0.39052632;stroke:none;stroke-width:0.89646;stroke-opacity:1"
           id="path4-2-1"
           cx="39.3433"
           cy="-101.0388"
           rx="1.370726"
           ry="1.048064"
           transform="matrix(0.22715505,0.97385861,-0.99086337,0.13486952,0,0)" /><ellipse
           style="fill:#0a321b;fill-opacity:0.39052632;stroke:none;stroke-width:0.89646;stroke-opacity:1"
           id="path4-2-1-8"
           cx="48.767647"
           cy="-119.87873"
           rx="1.370726"
           ry="1.048064"
           transform="matrix(0.17619088,0.98435602,-0.9965374,0.08314575,0,0)" /><ellipse
           style="fill:#0a321b;fill-opacity:0.39052632;stroke:none;stroke-width:0.811477;stroke-opacity:1"
           id="path4-2-1-8-4"
           cx="5.949717"
           cy="-133.9798"
           rx="1.3671014"
           ry="0.86104971"
           transform="matrix(-0.1012772,0.99485825,-0.96452171,-0.26400354,0,0)" /><ellipse
           style="fill:#0a321b;fill-opacity:0.39052632;stroke:none;stroke-width:0.811477;stroke-opacity:1"
           id="path4-2-1-8-4-9"
           cx="-14.459341"
           cy="-131.54099"
           rx="1.3671014"
           ry="0.86104971"
           transform="matrix(-0.24032056,0.97069358,-0.91775123,-0.39715574,0,0)" /><ellipse
           style="fill:#0a321b;fill-opacity:0.39052632;stroke:none;stroke-width:0.811477;stroke-opacity:1"
           id="path4-2-1-8-4-6"
           cx="59.209927"
           cy="-109.71626"
           rx="1.3671014"
           ry="0.86104971"
           transform="matrix(0.30015838,0.95388938,-0.99033575,0.13869064,0,0)" /><ellipse
           style="fill:#0a321b;fill-opacity:0.39052632;stroke:none;stroke-width:0.898655;stroke-opacity:1"
           id="path4-2-1-7"
           cx="17.652788"
           cy="-109.74371"
           rx="1.5655978"
           ry="0.92210776"
           transform="matrix(0.01616064,0.99986941,-0.99552459,-0.09450288,0,0)" /><ellipse
           style="fill:#0a321b;fill-opacity:0.39052632;stroke:none;stroke-width:0.897904;stroke-opacity:1"
           id="path4-2-1-7-9"
           cx="-7.900856"
           cy="-115.58587"
           rx="1.2182729"
           ry="1.1830177"
           transform="matrix(-0.25914714,0.96583785,-0.94066897,-0.33932564,0,0)" /><ellipse
           style="fill:#0a321b;fill-opacity:0.39052632;stroke:none;stroke-width:0.839852;stroke-opacity:1"
           id="path4-2-1-7-9-79"
           cx="-3.6432097"
           cy="-121.28091"
           rx="1.0932792"
           ry="1.1533213"
           transform="matrix(-0.28453623,0.95866529,-0.95072604,-0.31003225,0,0)" /><ellipse
           style="fill:#0a321b;fill-opacity:0.39052632;stroke:none;stroke-width:0.534255;stroke-opacity:1"
           id="path4-2-1-7-9-79-2"
           cx="31.859375"
           cy="-118.01559"
           rx="0.68128645"
           ry="0.74893278"
           transform="matrix(-0.04719875,0.99888552,-0.99896383,-0.04551112,0,0)" /><ellipse
           style="fill:#0a321b;fill-opacity:0.39052632;stroke:none;stroke-width:0.721204;stroke-opacity:1"
           id="path4-2-1-7-9-79-8"
           cx="58.970566"
           cy="-90.815239"
           rx="1.0718079"
           ry="0.86751062"
           transform="matrix(0.41107534,0.91160137,-0.97812195,0.20803235,0,0)" /><ellipse
           style="fill:#0a321b;fill-opacity:0.39052632;stroke:none;stroke-width:0.721204;stroke-opacity:1"
           id="path4-2-1-7-9-79-8-2"
           cx="93.765129"
           cy="-57.289135"
           rx="1.0718079"
           ry="0.86751062"
           transform="matrix(0.69753608,0.71654966,-0.84837793,0.52939105,0,0)" /><ellipse
           style="fill:#0a321b;fill-opacity:0.39052632;stroke:none;stroke-width:0.741428;stroke-opacity:1"
           id="path4-2-1-7-9-79-8-2-5"
           cx="87.217056"
           cy="-71.940437"
           rx="1.0925725"
           ry="0.89942241"
           transform="matrix(0.65766102,0.753314,-0.89484137,0.44638427,0,0)" /><ellipse
           style="fill:#0a321b;fill-opacity:0.39052632;stroke:none;stroke-width:0.75462;stroke-opacity:1"
           id="path4-2-1-7-9-7"
           cx="-31.234871"
           cy="-119.87621"
           rx="0.87529671"
           ry="1.1629977"
           transform="matrix(-0.34065111,0.94018978,-0.85613917,-0.51674532,0,0)" /><ellipse
           style="fill:#0a321b;fill-opacity:0.39052632;stroke:none;stroke-width:0.699441;stroke-opacity:1"
           id="path4-2-1-7-9-2"
           cx="8.702055"
           cy="-113.23338"
           rx="1.0836281"
           ry="0.80704606"
           transform="matrix(0.04855278,0.99882062,-0.97407924,-0.22620707,0,0)" /><ellipse
           style="fill:#0a321b;fill-opacity:0.39052632;stroke:none;stroke-width:0.676431;stroke-opacity:1"
           id="path4-2-1-7-9-2-1"
           cx="-4.7116899"
           cy="-113.64678"
           rx="0.97772026"
           ry="0.83657974"
           transform="matrix(-0.13414408,0.99096184,-0.94872736,-0.31609554,0,0)" /><ellipse
           style="fill:#0a321b;fill-opacity:0.39052632;stroke:none;stroke-width:0.676431;stroke-opacity:1"
           id="path4-2-1-7-9-2-1-0"
           cx="-6.0411992"
           cy="-132.21251"
           rx="0.97772026"
           ry="0.83657974"
           transform="matrix(-0.13414408,0.99096184,-0.94872736,-0.31609554,0,0)" /><path
           id="path4-2-1-7-9-5"
           style="fill:#0a321b;fill-opacity:0.39052632;stroke:none;stroke-width:0.896317;stroke-opacity:1"
           d="m 110.9974,28.282932 a 1.2530198,1.1461505 40.095027 0 0 -0.49065,1.296589 1.2530198,1.1461505 40.095027 0 0 1.51124,0.917067 1.2530198,1.1461505 40.095027 0 0 0.49554,-0.247389 l -1.28399,-2.059827 a 1.2530198,1.1461505 40.095027 0 0 -0.23215,0.09356 z" /></g></g></g></svg>
